<?xml version="1.0" encoding="utf-8"?>
<!-- Generator: Adobe Illustrator 24.3.0, SVG Export Plug-In . SVG Version: 6.00 Build 0)  -->
<svg version="1.1" id="Layer_3" xmlns="http://www.w3.org/2000/svg" xmlns:xlink="http://www.w3.org/1999/xlink" x="0px" y="0px"
	 viewBox="0 0 320 86" style="enable-background:new 0 0 320 86;" xml:space="preserve">
<style type="text/css">
	.st0{fill:#0BA6E0;stroke:#0BA6E0;stroke-width:8;stroke-linejoin:round;stroke-miterlimit:10;}
	.st1{fill:#FFFFFF;}
</style>
<g>
	<g>
		<path class="st0" d="M25.45,26.69c0.7,0,1.28,0.14,1.74,0.43c0.46,0.29,0.85,0.66,1.15,1.12c0.31,0.47,0.56,1,0.76,1.6
			c0.2,0.6,0.36,1.21,0.5,1.84c1.12,4.86,2.04,8.87,2.77,12.01c0.73,3.15,1.3,5.69,1.72,7.63s0.71,3.37,0.88,4.3
			c0.17,0.93,0.25,1.57,0.25,1.93c0,0.42-0.09,0.71-0.27,0.86c-0.18,0.15-0.47,0.22-0.86,0.22h-2.14c-1.2,0-2.16-0.16-2.87-0.47
			c-0.71-0.31-1.26-0.77-1.64-1.37c-0.38-0.6-0.65-1.33-0.82-2.18c-0.17-0.86-0.31-1.82-0.42-2.9h-7.3l-1.38,6.21
			c-0.14,0.48-0.46,0.72-0.97,0.72h-2.22c-0.45,0-0.91-0.05-1.38-0.16c-0.48-0.11-0.9-0.28-1.28-0.52s-0.69-0.55-0.94-0.92
			c-0.25-0.38-0.38-0.83-0.38-1.37c0-0.66,0.2-1.74,0.59-3.24s0.89-3.2,1.49-5.11c0.6-1.91,1.27-3.9,2.01-5.98
			c0.74-2.08,1.46-4.06,2.16-5.92c0.7-1.86,1.34-3.49,1.91-4.9c0.57-1.41,1.01-2.4,1.32-2.97c0.22-0.42,0.43-0.67,0.61-0.74
			c0.18-0.07,0.52-0.11,1.03-0.11H25.45z M20.42,45.19h4.83l-1.76-11.88L20.42,45.19z"/>
		<path class="st0" d="M47.56,33.44c2.38,0,4.13,0.5,5.24,1.51c1.12,1.01,1.68,2.29,1.68,3.85c0,1.32-0.38,2.33-1.15,3.02
			c-0.77,0.69-1.88,1.04-3.34,1.04c-0.39,0-0.66-0.04-0.8-0.13c-0.14-0.09-0.21-0.25-0.21-0.5c0-0.27-0.02-0.58-0.06-0.92
			c-0.04-0.34-0.14-0.67-0.29-0.99s-0.39-0.58-0.71-0.79c-0.32-0.21-0.78-0.31-1.36-0.31c-0.78,0-1.41,0.2-1.89,0.61
			c-0.48,0.4-0.71,0.91-0.71,1.51c0,0.63,0.24,1.13,0.73,1.51c0.49,0.37,1.1,0.73,1.85,1.06c0.74,0.33,1.55,0.67,2.41,1.01
			c0.87,0.34,1.67,0.8,2.41,1.37c0.74,0.57,1.36,1.28,1.85,2.14c0.49,0.85,0.73,1.96,0.73,3.31c0,2.16-0.71,3.93-2.14,5.31
			c-1.43,1.38-3.57,2.07-6.42,2.07c-0.78,0-1.69-0.07-2.71-0.2c-1.02-0.13-1.99-0.34-2.92-0.63c-0.92-0.28-1.7-0.67-2.33-1.15
			c-0.63-0.48-0.94-1.08-0.94-1.8c0-0.27,0.05-0.6,0.15-0.99c0.1-0.39,0.25-0.76,0.46-1.12c0.21-0.36,0.46-0.67,0.76-0.92
			c0.29-0.25,0.65-0.38,1.07-0.38c0.34,0,0.64,0.09,0.92,0.27c0.28,0.18,0.61,0.37,0.99,0.56c0.38,0.2,0.85,0.38,1.41,0.56
			c0.56,0.18,1.3,0.27,2.22,0.27c0.7,0,1.32-0.09,1.87-0.27c0.55-0.18,0.82-0.58,0.82-1.21c0-0.57-0.22-1.03-0.67-1.37
			c-0.45-0.34-1.01-0.67-1.7-0.97c-0.69-0.3-1.43-0.62-2.22-0.97c-0.8-0.34-1.54-0.8-2.22-1.37c-0.69-0.57-1.25-1.3-1.7-2.18
			c-0.45-0.88-0.67-2.03-0.67-3.44c0-1.53,0.29-2.83,0.86-3.89c0.57-1.06,1.31-1.93,2.22-2.59c0.91-0.66,1.94-1.13,3.08-1.42
			C45.27,33.59,46.41,33.44,47.56,33.44z"/>
		<path class="st0" d="M67.2,59.09c-1.23,0-2.45-0.17-3.67-0.5s-2.31-0.9-3.27-1.71c-0.96-0.81-1.76-1.89-2.37-3.24
			c-0.62-1.35-0.92-3.04-0.92-5.08c0-0.75,0.06-1.65,0.17-2.7c0.11-1.05,0.33-2.13,0.65-3.24c0.32-1.11,0.77-2.21,1.34-3.31
			c0.57-1.09,1.32-2.08,2.24-2.95c0.92-0.87,2.04-1.58,3.36-2.12c1.31-0.54,2.88-0.81,4.7-0.81c1.45,0,2.69,0.18,3.69,0.54
			c1.01,0.36,1.82,0.85,2.43,1.46c0.62,0.62,1.06,1.33,1.34,2.14c0.28,0.81,0.42,1.68,0.42,2.61c0,1.38-0.26,2.55-0.78,3.51
			c-0.52,0.96-1.19,1.76-2.01,2.41c-0.83,0.65-1.74,1.15-2.75,1.51c-1.01,0.36-2,0.64-2.98,0.83c-0.98,0.2-1.88,0.31-2.71,0.36
			c-0.83,0.04-1.46,0.07-1.91,0.07c0,0.57,0.08,1.13,0.23,1.69s0.38,1.04,0.69,1.46c0.31,0.42,0.71,0.77,1.22,1.04
			c0.5,0.27,1.12,0.41,1.85,0.41c0.73,0,1.29-0.13,1.7-0.38c0.4-0.25,0.73-0.54,0.99-0.85c0.25-0.32,0.47-0.6,0.65-0.86
			c0.18-0.25,0.43-0.38,0.73-0.38c0.14,0,0.38,0.04,0.73,0.11c0.35,0.08,0.71,0.23,1.07,0.47c0.36,0.24,0.69,0.57,0.96,0.99
			c0.28,0.42,0.42,0.96,0.42,1.62c0,0.87-0.25,1.62-0.76,2.25s-1.15,1.14-1.95,1.53c-0.8,0.39-1.69,0.67-2.66,0.85
			C69.07,59,68.12,59.09,67.2,59.09z M67.99,39.43c-0.62,0-1.14,0.19-1.57,0.56c-0.43,0.38-0.8,0.85-1.09,1.42
			c-0.29,0.57-0.52,1.2-0.67,1.89c-0.15,0.69-0.27,1.35-0.36,1.98c1.73-0.03,3.14-0.34,4.22-0.94c1.08-0.6,1.62-1.45,1.62-2.56
			c0-0.6-0.17-1.14-0.52-1.62C69.26,39.67,68.72,39.43,67.99,39.43z"/>
		<path class="st0" d="M94.34,33.44c2.63,0,4.61,0.87,5.94,2.61c1.33,1.74,1.99,4.48,1.99,8.23c0,2.34-0.25,4.43-0.75,6.26
			s-1.2,3.38-2.1,4.66c-0.9,1.28-1.94,2.24-3.15,2.9s-2.5,0.99-3.9,0.99c-1.48,0-2.64-0.35-3.48-1.04c-0.84-0.69-1.5-1.67-1.97-2.92
			c-0.08,1.08-0.15,1.91-0.21,2.47c-0.06,0.57-0.1,1.03-0.13,1.37c-0.03,0.34-0.05,0.65-0.06,0.92c-0.01,0.27-0.04,0.63-0.08,1.08
			s-0.09,1.06-0.15,1.84c-0.06,0.78-0.14,1.86-0.25,3.24c-0.03,0.36-0.1,0.6-0.21,0.72c-0.11,0.12-0.35,0.18-0.71,0.18H83.6
			c-0.87,0-1.57-0.1-2.12-0.29s-0.98-0.47-1.3-0.83c-0.32-0.36-0.55-0.8-0.67-1.33c-0.13-0.52-0.19-1.13-0.19-1.82
			c0-0.3,0.04-1.11,0.13-2.43c0.08-1.32,0.19-2.9,0.31-4.75c0.13-1.84,0.27-3.83,0.42-5.96c0.15-2.13,0.3-4.16,0.44-6.1
			c0.14-1.93,0.26-3.65,0.36-5.15c0.1-1.5,0.17-2.54,0.23-3.1c0.03-0.66,0.1-1.05,0.21-1.17c0.08-0.09,0.31-0.13,0.67-0.13h1.64
			c1.51,0,2.61,0.34,3.29,1.01c0.69,0.67,1.03,1.48,1.03,2.41c0.64-1.38,1.48-2.37,2.5-2.97C91.56,33.74,92.83,33.44,94.34,33.44z
			 M91.28,39.43c-1.43,0-2.48,0.66-3.15,1.98c-0.67,1.32-1.01,3.12-1.01,5.4c0,0.78,0.05,1.55,0.15,2.29
			c0.1,0.75,0.27,1.42,0.52,2.03c0.25,0.6,0.59,1.08,1.03,1.44c0.43,0.36,0.99,0.54,1.66,0.54c1.2,0,2.21-0.63,3.02-1.89
			c0.81-1.26,1.22-3.24,1.22-5.94c0-0.75-0.05-1.48-0.15-2.18c-0.1-0.7-0.27-1.33-0.52-1.87c-0.25-0.54-0.6-0.97-1.05-1.31
			C92.55,39.59,91.98,39.43,91.28,39.43z"/>
		<path class="st0" d="M119.05,44.65c-0.17,0-0.36-0.01-0.57-0.02c-0.21-0.01-0.41-0.04-0.61-0.09c-0.2-0.04-0.36-0.1-0.5-0.18
			c-0.14-0.08-0.21-0.17-0.21-0.29c0-0.39,0.01-0.75,0.04-1.08c0.03-0.33,0.04-0.67,0.04-1.03c0-0.66-0.08-1.2-0.25-1.62
			c-0.17-0.42-0.5-0.63-1.01-0.63c-0.78,0-1.43,0.55-1.95,1.64c-0.52,1.1-0.85,2.74-0.99,4.93c-0.06,0.96-0.13,2.05-0.23,3.26
			c-0.1,1.21-0.19,2.38-0.27,3.51s-0.15,2.12-0.21,2.99c-0.06,0.87-0.08,1.44-0.08,1.71c0,0.3-0.1,0.53-0.29,0.68
			c-0.2,0.15-0.41,0.22-0.63,0.22h-1.51c-0.87,0-1.57-0.1-2.12-0.29c-0.55-0.19-0.98-0.47-1.3-0.83c-0.32-0.36-0.55-0.8-0.67-1.33
			c-0.13-0.52-0.19-1.13-0.19-1.82c0-0.45,0.02-1.09,0.06-1.91s0.12-1.96,0.23-3.42s0.24-3.3,0.4-5.54c0.15-2.23,0.34-5,0.57-8.3
			c0.06-0.87,0.35-1.31,0.88-1.31h1.64c0.78,0,1.44,0.09,1.97,0.27s0.97,0.43,1.3,0.74c0.34,0.31,0.58,0.68,0.73,1.1
			c0.15,0.42,0.26,0.85,0.31,1.3c0.34-0.69,0.73-1.28,1.2-1.78s0.94-0.9,1.45-1.21c0.5-0.32,1.02-0.54,1.55-0.68
			c0.53-0.13,1.02-0.2,1.47-0.2c0.53,0,1.07,0.11,1.62,0.32s1.04,0.52,1.49,0.94c0.45,0.42,0.8,0.96,1.07,1.62
			c0.27,0.66,0.4,1.44,0.4,2.34c0,0.81-0.11,1.58-0.34,2.29c-0.22,0.72-0.55,1.36-0.96,1.91c-0.42,0.56-0.93,0.99-1.53,1.3
			C120.44,44.49,119.78,44.65,119.05,44.65z"/>
		<path class="st0" d="M135,59.09c-1.93,0-3.53-0.29-4.8-0.88c-1.27-0.58-2.29-1.39-3.04-2.41c-0.76-1.02-1.29-2.21-1.59-3.58
			c-0.31-1.37-0.46-2.83-0.46-4.39c0-1.8,0.2-3.56,0.61-5.29c0.4-1.72,1.1-3.26,2.08-4.61c0.98-1.35,2.27-2.44,3.88-3.26
			c1.61-0.82,3.61-1.24,6.02-1.24c3.52,0,6.05,0.92,7.57,2.77c1.52,1.85,2.29,4.43,2.29,7.76c0,0.93-0.06,1.96-0.19,3.08
			c-0.13,1.12-0.36,2.24-0.71,3.35c-0.35,1.11-0.83,2.19-1.43,3.24c-0.6,1.05-1.36,1.98-2.29,2.79c-0.92,0.81-2.04,1.46-3.34,1.94
			C138.29,58.85,136.76,59.09,135,59.09z M136.97,39.43c-1.06,0-1.91,0.29-2.54,0.88s-1.11,1.29-1.43,2.11
			c-0.32,0.82-0.53,1.69-0.63,2.61c-0.1,0.92-0.15,1.69-0.15,2.32c0,1.98,0.29,3.44,0.88,4.37s1.43,1.39,2.52,1.39
			c0.98,0,1.78-0.33,2.41-0.99c0.63-0.66,1.12-1.45,1.47-2.38c0.35-0.93,0.59-1.9,0.71-2.92c0.13-1.02,0.19-1.88,0.19-2.57
			c0-1.5-0.26-2.68-0.78-3.53C139.11,39.86,138.23,39.43,136.97,39.43z"/>
		<path class="st0" d="M164.62,53.06c0.08-0.99,0.17-2.03,0.27-3.1c0.1-1.08,0.18-2.12,0.25-3.11c0.07-0.99,0.13-1.87,0.19-2.66
			c0.06-0.78,0.08-1.35,0.08-1.71c0-0.78-0.17-1.48-0.52-2.09c-0.35-0.61-1.03-0.92-2.04-0.92c-1.34,0-2.43,0.67-3.25,2.02
			s-1.31,3.15-1.45,5.4c-0.06,0.63-0.12,1.51-0.21,2.63s-0.17,2.27-0.25,3.42c-0.08,1.16-0.16,2.19-0.23,3.1
			c-0.07,0.92-0.11,1.48-0.11,1.69c0,0.36-0.06,0.6-0.19,0.72c-0.12,0.12-0.37,0.18-0.73,0.18h-1.51c-0.87,0-1.57-0.1-2.12-0.29
			c-0.55-0.19-0.98-0.47-1.3-0.83c-0.32-0.36-0.55-0.8-0.67-1.33c-0.13-0.52-0.19-1.13-0.19-1.82c0-0.66,0.05-1.58,0.15-2.77
			c0.1-1.18,0.23-2.82,0.4-4.9s0.36-4.75,0.59-7.99c0.22-3.24,0.46-7.26,0.71-12.06c0.03-0.66,0.1-1.05,0.21-1.17
			c0.08-0.09,0.31-0.13,0.67-0.13h1.64c0.84,0,1.54,0.11,2.1,0.31c0.56,0.21,1.01,0.49,1.34,0.85c0.34,0.36,0.57,0.77,0.71,1.24
			c0.14,0.47,0.21,0.95,0.21,1.46c0,0.54-0.05,1.55-0.15,3.02c-0.1,1.47-0.22,3.19-0.36,5.17c0.84-1.5,1.77-2.53,2.79-3.1
			c1.02-0.57,2.31-0.85,3.88-0.85c1.17,0,2.2,0.14,3.06,0.41s1.59,0.73,2.16,1.37c0.57,0.65,1,1.48,1.28,2.52
			c0.28,1.03,0.42,2.32,0.42,3.85c0,0.48-0.04,1.31-0.12,2.47c-0.08,1.17-0.19,2.5-0.31,4c-0.13,1.5-0.25,3.07-0.38,4.7
			c-0.12,1.63-0.23,3.13-0.31,4.48c-0.03,0.33-0.06,0.58-0.08,0.76s-0.08,0.31-0.15,0.41c-0.07,0.09-0.18,0.15-0.31,0.18
			c-0.14,0.03-0.34,0.04-0.59,0.04h-1.34c-0.9,0-1.62-0.09-2.18-0.27c-0.56-0.18-0.99-0.43-1.3-0.77c-0.31-0.33-0.53-0.74-0.65-1.24
			c-0.13-0.5-0.19-1.06-0.19-1.69c0-0.3,0.01-0.58,0.02-0.86C164.57,53.56,164.59,53.3,164.62,53.06z"/>
		<path class="st0" d="M180.52,58.64c-0.87,0-1.57-0.1-2.12-0.29c-0.55-0.19-0.98-0.47-1.3-0.83s-0.54-0.8-0.67-1.33
			s-0.19-1.13-0.19-1.82c0-0.45,0.02-1.09,0.06-1.91s0.12-1.96,0.23-3.42c0.11-1.46,0.25-3.3,0.4-5.54c0.15-2.23,0.34-5,0.57-8.3
			c0.03-0.66,0.1-1.05,0.21-1.17c0.08-0.09,0.31-0.13,0.67-0.13h1.64c0.87,0,1.57,0.09,2.12,0.27c0.54,0.18,0.98,0.45,1.3,0.81
			s0.55,0.79,0.67,1.3c0.13,0.51,0.19,1.08,0.19,1.71c0,0.45-0.03,1.12-0.08,2.02s-0.13,2.12-0.23,3.67
			c-0.1,1.55-0.23,3.47-0.4,5.76s-0.38,5.06-0.63,8.3c-0.03,0.36-0.1,0.6-0.21,0.72c-0.11,0.12-0.35,0.18-0.71,0.18H180.52z
			 M177.54,28.58c0-1.2,0.41-2.14,1.22-2.83c0.81-0.69,1.9-1.04,3.27-1.04c1.2,0,2.08,0.26,2.62,0.79c0.55,0.53,0.82,1.22,0.82,2.09
			c0,1.11-0.38,2.03-1.15,2.77c-0.77,0.74-1.9,1.1-3.38,1.1C178.67,31.46,177.54,30.5,177.54,28.58z"/>
		<path class="st0" d="M195.24,50.54c-0.08,1.38-0.18,2.69-0.29,3.94c-0.11,1.25-0.2,2.33-0.25,3.26c-0.03,0.36-0.1,0.6-0.21,0.72
			c-0.11,0.12-0.35,0.18-0.71,0.18h-1.51c-0.87,0-1.57-0.1-2.12-0.29c-0.55-0.19-0.98-0.47-1.3-0.83s-0.54-0.8-0.67-1.33
			s-0.19-1.13-0.19-1.82c0-0.45,0.02-1.09,0.06-1.91s0.12-1.96,0.23-3.42c0.11-1.46,0.25-3.3,0.4-5.54c0.15-2.23,0.34-5,0.57-8.3
			c0.03-0.66,0.1-1.05,0.21-1.17c0.08-0.09,0.31-0.13,0.67-0.13h1.64c0.84,0,1.52,0.11,2.06,0.31c0.53,0.21,0.96,0.48,1.3,0.81
			c0.34,0.33,0.57,0.72,0.71,1.17c0.14,0.45,0.22,0.92,0.25,1.4c0.81-1.62,1.73-2.71,2.77-3.29c1.03-0.57,2.25-0.85,3.65-0.85
			c0.76,0,1.48,0.08,2.18,0.23c0.7,0.15,1.33,0.41,1.89,0.77c0.56,0.36,1.03,0.83,1.43,1.42s0.67,1.33,0.84,2.23
			c0.87-1.74,1.82-2.95,2.85-3.62c1.03-0.67,2.33-1.01,3.9-1.01c0.87,0,1.7,0.1,2.5,0.29c0.8,0.2,1.49,0.53,2.08,1.01
			c0.59,0.48,1.06,1.13,1.41,1.96c0.35,0.83,0.52,1.85,0.52,3.08c0,0.93-0.04,2.07-0.13,3.42c-0.08,1.35-0.18,2.81-0.29,4.39
			c-0.11,1.58-0.24,3.2-0.38,4.86s-0.25,3.26-0.33,4.79c-0.03,0.33-0.06,0.58-0.08,0.76c-0.03,0.18-0.08,0.31-0.15,0.41
			c-0.07,0.09-0.17,0.15-0.31,0.18c-0.14,0.03-0.33,0.04-0.59,0.04h-1.34c-0.9,0-1.62-0.09-2.18-0.27c-0.56-0.18-0.99-0.43-1.3-0.77
			c-0.31-0.33-0.52-0.74-0.65-1.24s-0.19-1.06-0.19-1.69c0-0.39,0.02-0.95,0.06-1.67s0.1-1.5,0.17-2.34
			c0.07-0.84,0.14-1.71,0.21-2.61c0.07-0.9,0.14-1.73,0.21-2.5c0.07-0.77,0.13-1.43,0.17-2c0.04-0.57,0.06-0.94,0.06-1.12
			c0-0.78-0.15-1.47-0.44-2.07c-0.29-0.6-0.86-0.9-1.7-0.9c-0.73,0-1.36,0.26-1.89,0.77c-0.53,0.51-0.98,1.21-1.34,2.11
			c-0.36,0.9-0.66,1.96-0.88,3.19c-0.22,1.23-0.38,2.56-0.46,4c-0.06,0.93-0.13,2-0.21,3.2s-0.18,2.7-0.29,4.5
			c-0.03,0.33-0.06,0.58-0.08,0.76c-0.03,0.18-0.08,0.31-0.15,0.41c-0.07,0.09-0.17,0.15-0.31,0.18c-0.14,0.03-0.34,0.04-0.59,0.04
			h-1.34c-0.9,0-1.62-0.09-2.18-0.27c-0.56-0.18-0.99-0.43-1.3-0.77c-0.31-0.33-0.52-0.74-0.65-1.24s-0.19-1.06-0.19-1.69
			c0-0.6,0.05-1.48,0.15-2.63c0.1-1.15,0.2-2.35,0.29-3.6c0.1-1.25,0.2-2.43,0.29-3.55c0.1-1.12,0.15-1.94,0.15-2.45
			c0-0.78-0.15-1.47-0.44-2.07c-0.29-0.6-0.86-0.9-1.7-0.9c-0.75,0-1.4,0.3-1.93,0.9c-0.53,0.6-0.97,1.4-1.32,2.41
			c-0.35,1-0.63,2.18-0.84,3.53S195.33,49.07,195.24,50.54z"/>
		<path class="st0" d="M224.57,53.11c0-2.7,1.13-4.81,3.4-6.34c2.26-1.53,5.61-2.35,10.03-2.48c0.03-0.33,0.05-0.61,0.06-0.83
			c0.01-0.22,0.02-0.5,0.02-0.83c0-0.96-0.17-1.73-0.5-2.3c-0.34-0.57-1.04-0.85-2.1-0.85c-0.59,0-1.06,0.09-1.43,0.27
			c-0.36,0.18-0.66,0.43-0.88,0.74c-0.22,0.32-0.41,0.7-0.55,1.15c-0.14,0.45-0.27,0.95-0.38,1.48c-0.06,0.27-0.18,0.44-0.38,0.52
			c-0.2,0.08-0.5,0.11-0.92,0.11c-2.85,0-4.28-1.15-4.28-3.46c0-0.93,0.2-1.81,0.61-2.66c0.41-0.84,1.01-1.57,1.8-2.18
			c0.8-0.61,1.8-1.1,3-1.46c1.2-0.36,2.6-0.54,4.2-0.54c3.1,0,5.36,0.69,6.75,2.07c1.4,1.38,2.1,3.33,2.1,5.85
			c0,0.33-0.04,0.92-0.1,1.78c-0.07,0.86-0.15,1.76-0.25,2.7c-0.1,0.95-0.18,1.84-0.25,2.68c-0.07,0.84-0.1,1.42-0.1,1.75
			c0,0.75,0.13,1.28,0.38,1.6c0.25,0.32,0.54,0.53,0.86,0.65c0.32,0.12,0.61,0.21,0.86,0.27s0.38,0.21,0.38,0.45
			c0,0.66-0.08,1.34-0.25,2.03c-0.17,0.69-0.44,1.32-0.82,1.89c-0.38,0.57-0.9,1.04-1.55,1.4c-0.66,0.36-1.46,0.54-2.41,0.54
			c-1.34,0-2.35-0.35-3.02-1.04c-0.67-0.69-1.12-1.65-1.34-2.88c-0.67,1.05-1.55,1.96-2.62,2.75c-1.08,0.78-2.48,1.17-4.22,1.17
			c-0.84,0-1.63-0.11-2.37-0.32c-0.74-0.21-1.38-0.55-1.93-1.04c-0.54-0.48-0.98-1.1-1.3-1.87
			C224.73,55.11,224.57,54.19,224.57,53.11z M237.62,47.98c-0.73,0-1.44,0.06-2.14,0.18c-0.7,0.12-1.32,0.31-1.87,0.56
			c-0.55,0.26-0.99,0.59-1.32,1.01c-0.34,0.42-0.5,0.93-0.5,1.53c0,0.69,0.2,1.17,0.61,1.44c0.41,0.27,0.85,0.41,1.32,0.41
			c0.45,0,0.9-0.1,1.34-0.31s0.85-0.53,1.2-0.97c0.35-0.43,0.65-0.97,0.9-1.6S237.56,48.85,237.62,47.98z"/>
		<path class="st0" d="M258.47,39.97c-0.08,1.14-0.17,2.26-0.27,3.37c-0.1,1.11-0.19,2.16-0.27,3.15c-0.08,0.99-0.15,1.88-0.19,2.66
			c-0.04,0.78-0.06,1.38-0.06,1.8c0,0.78,0.08,1.3,0.25,1.55s0.45,0.38,0.84,0.38c0.31,0,0.57-0.06,0.8-0.18
			c0.22-0.12,0.43-0.25,0.63-0.4c0.2-0.15,0.37-0.29,0.52-0.41c0.15-0.12,0.33-0.18,0.52-0.18c0.2,0,0.38,0.12,0.54,0.36
			c0.17,0.24,0.25,0.8,0.25,1.67c0,1.65-0.42,2.96-1.26,3.92c-0.84,0.96-2.28,1.44-4.32,1.44c-2.01,0-3.5-0.5-4.47-1.51
			c-0.96-1-1.45-2.54-1.45-4.61c0-0.45,0.02-0.98,0.06-1.6c0.04-0.61,0.1-1.42,0.19-2.41s0.19-2.21,0.31-3.65
			c0.13-1.44,0.26-3.22,0.4-5.35h-2.22c-0.22,0-0.36-0.05-0.4-0.16c-0.04-0.1-0.06-0.26-0.06-0.47l0.13-2.29
			c0.03-0.39,0.08-0.77,0.15-1.15c0.07-0.37,0.21-0.71,0.42-1.01s0.51-0.54,0.9-0.72c0.39-0.18,0.91-0.27,1.55-0.27
			c0.2-0.54,0.42-1.18,0.67-1.94c0.25-0.75,0.5-1.48,0.75-2.18c0.25-0.7,0.5-1.3,0.73-1.78c0.24-0.48,0.45-0.72,0.65-0.72h1.22
			c1.17,0,1.99,0.39,2.43,1.17c0.45,0.78,0.67,1.71,0.67,2.79c0,0.6-0.04,1.48-0.13,2.65h4.41c0.45,0,0.67,0.21,0.67,0.63
			l-0.17,2.43c-0.06,0.9-0.29,1.63-0.69,2.18c-0.41,0.56-1.24,0.83-2.5,0.83H258.47z"/>
		<path class="st0" d="M275.59,59.09c-1.23,0-2.46-0.17-3.67-0.5c-1.22-0.33-2.31-0.9-3.27-1.71c-0.96-0.81-1.75-1.89-2.37-3.24
			c-0.62-1.35-0.92-3.04-0.92-5.08c0-0.75,0.06-1.65,0.17-2.7c0.11-1.05,0.33-2.13,0.65-3.24c0.32-1.11,0.77-2.21,1.34-3.31
			c0.57-1.09,1.32-2.08,2.25-2.95c0.92-0.87,2.04-1.58,3.36-2.12c1.31-0.54,2.88-0.81,4.7-0.81c1.45,0,2.68,0.18,3.69,0.54
			c1.01,0.36,1.82,0.85,2.43,1.46c0.62,0.62,1.06,1.33,1.34,2.14c0.28,0.81,0.42,1.68,0.42,2.61c0,1.38-0.26,2.55-0.78,3.51
			c-0.52,0.96-1.19,1.76-2.01,2.41c-0.83,0.65-1.74,1.15-2.75,1.51c-1.01,0.36-2,0.64-2.98,0.83s-1.88,0.31-2.71,0.36
			c-0.83,0.04-1.46,0.07-1.91,0.07c0,0.57,0.08,1.13,0.23,1.69c0.15,0.55,0.38,1.04,0.69,1.46c0.31,0.42,0.71,0.77,1.22,1.04
			c0.5,0.27,1.12,0.41,1.85,0.41c0.73,0,1.29-0.13,1.7-0.38c0.41-0.25,0.73-0.54,0.99-0.85c0.25-0.32,0.47-0.6,0.65-0.86
			s0.43-0.38,0.73-0.38c0.14,0,0.38,0.04,0.73,0.11s0.71,0.23,1.07,0.47c0.36,0.24,0.68,0.57,0.96,0.99
			c0.28,0.42,0.42,0.96,0.42,1.62c0,0.87-0.25,1.62-0.75,2.25s-1.15,1.14-1.95,1.53c-0.8,0.39-1.69,0.67-2.66,0.85
			C277.46,59,276.51,59.09,275.59,59.09z M276.38,39.43c-0.62,0-1.14,0.19-1.57,0.56c-0.43,0.38-0.8,0.85-1.09,1.42
			c-0.29,0.57-0.52,1.2-0.67,1.89c-0.15,0.69-0.27,1.35-0.36,1.98c1.73-0.03,3.14-0.34,4.22-0.94c1.08-0.6,1.62-1.45,1.62-2.56
			c0-0.6-0.17-1.14-0.52-1.62C277.65,39.67,277.11,39.43,276.38,39.43z"/>
		<path class="st0" d="M286.96,53.11c0-2.7,1.13-4.81,3.4-6.34c2.26-1.53,5.61-2.35,10.03-2.48c0.03-0.33,0.05-0.61,0.06-0.83
			c0.01-0.22,0.02-0.5,0.02-0.83c0-0.96-0.17-1.73-0.5-2.3c-0.34-0.57-1.04-0.85-2.1-0.85c-0.59,0-1.06,0.09-1.43,0.27
			c-0.36,0.18-0.66,0.43-0.88,0.74c-0.22,0.32-0.41,0.7-0.55,1.15c-0.14,0.45-0.27,0.95-0.38,1.48c-0.06,0.27-0.18,0.44-0.38,0.52
			c-0.2,0.08-0.5,0.11-0.92,0.11c-2.85,0-4.28-1.15-4.28-3.46c0-0.93,0.2-1.81,0.61-2.66c0.41-0.84,1.01-1.57,1.8-2.18
			c0.8-0.61,1.8-1.1,3-1.46c1.2-0.36,2.6-0.54,4.2-0.54c3.1,0,5.36,0.69,6.75,2.07c1.4,1.38,2.1,3.33,2.1,5.85
			c0,0.33-0.04,0.92-0.1,1.78c-0.07,0.86-0.15,1.76-0.25,2.7c-0.1,0.95-0.18,1.84-0.25,2.68c-0.07,0.84-0.1,1.42-0.1,1.75
			c0,0.75,0.13,1.28,0.38,1.6c0.25,0.32,0.54,0.53,0.86,0.65c0.32,0.12,0.61,0.21,0.86,0.27s0.38,0.21,0.38,0.45
			c0,0.66-0.08,1.34-0.25,2.03c-0.17,0.69-0.44,1.32-0.82,1.89c-0.38,0.57-0.9,1.04-1.55,1.4c-0.66,0.36-1.46,0.54-2.41,0.54
			c-1.34,0-2.35-0.35-3.02-1.04c-0.67-0.69-1.12-1.65-1.34-2.88c-0.67,1.05-1.55,1.96-2.62,2.75c-1.08,0.78-2.48,1.17-4.22,1.17
			c-0.84,0-1.63-0.11-2.37-0.32c-0.74-0.21-1.38-0.55-1.93-1.04c-0.54-0.48-0.98-1.1-1.3-1.87
			C287.12,55.11,286.96,54.19,286.96,53.11z M300,47.98c-0.73,0-1.44,0.06-2.14,0.18c-0.7,0.12-1.32,0.31-1.87,0.56
			c-0.55,0.26-0.99,0.59-1.32,1.01c-0.34,0.42-0.5,0.93-0.5,1.53c0,0.69,0.2,1.17,0.61,1.44c0.41,0.27,0.85,0.41,1.32,0.41
			c0.45,0,0.9-0.1,1.34-0.31s0.85-0.53,1.2-0.97c0.35-0.43,0.65-0.97,0.9-1.6S299.95,48.85,300,47.98z"/>
	</g>
</g>
<g>
	<g>
		<path class="st1" d="M25.2,26.69c0.7,0,1.28,0.14,1.74,0.43c0.46,0.29,0.85,0.66,1.15,1.12c0.31,0.47,0.56,1,0.76,1.6
			c0.2,0.6,0.36,1.21,0.5,1.84c1.12,4.86,2.04,8.87,2.77,12.01c0.73,3.15,1.3,5.69,1.72,7.63s0.71,3.37,0.88,4.3
			c0.17,0.93,0.25,1.57,0.25,1.93c0,0.42-0.09,0.71-0.27,0.86c-0.18,0.15-0.47,0.22-0.86,0.22H31.7c-1.2,0-2.16-0.16-2.87-0.47
			c-0.71-0.31-1.26-0.77-1.64-1.37c-0.38-0.6-0.65-1.33-0.82-2.18c-0.17-0.86-0.31-1.82-0.42-2.9h-7.3l-1.38,6.21
			c-0.14,0.48-0.46,0.72-0.97,0.72h-2.22c-0.45,0-0.91-0.05-1.38-0.16c-0.48-0.11-0.9-0.28-1.28-0.52s-0.69-0.55-0.94-0.92
			c-0.25-0.38-0.38-0.83-0.38-1.37c0-0.66,0.2-1.74,0.59-3.24s0.89-3.2,1.49-5.11c0.6-1.91,1.27-3.9,2.01-5.99
			c0.74-2.08,1.46-4.06,2.16-5.92c0.7-1.86,1.34-3.49,1.91-4.9c0.57-1.41,1.01-2.4,1.32-2.97c0.22-0.42,0.43-0.67,0.61-0.74
			c0.18-0.07,0.52-0.11,1.03-0.11H25.2z M20.17,45.19h4.83l-1.76-11.88L20.17,45.19z"/>
		<path class="st1" d="M47.31,33.44c2.38,0,4.13,0.5,5.24,1.51c1.12,1.01,1.68,2.29,1.68,3.85c0,1.32-0.38,2.33-1.15,3.02
			c-0.77,0.69-1.88,1.04-3.34,1.04c-0.39,0-0.66-0.04-0.8-0.13c-0.14-0.09-0.21-0.25-0.21-0.5c0-0.27-0.02-0.58-0.06-0.92
			c-0.04-0.34-0.14-0.67-0.29-0.99s-0.39-0.58-0.71-0.79c-0.32-0.21-0.78-0.31-1.36-0.31c-0.78,0-1.41,0.2-1.89,0.61
			c-0.48,0.4-0.71,0.91-0.71,1.51c0,0.63,0.24,1.13,0.73,1.51s1.1,0.73,1.85,1.06c0.74,0.33,1.55,0.67,2.41,1.01
			c0.87,0.34,1.67,0.8,2.41,1.37c0.74,0.57,1.36,1.28,1.85,2.14c0.49,0.85,0.73,1.96,0.73,3.31c0,2.16-0.71,3.93-2.14,5.31
			c-1.43,1.38-3.57,2.07-6.42,2.07c-0.78,0-1.69-0.07-2.71-0.2c-1.02-0.13-1.99-0.34-2.92-0.63c-0.92-0.28-1.7-0.67-2.33-1.15
			c-0.63-0.48-0.94-1.08-0.94-1.8c0-0.27,0.05-0.6,0.15-0.99c0.1-0.39,0.25-0.76,0.46-1.12c0.21-0.36,0.46-0.67,0.76-0.92
			c0.29-0.25,0.65-0.38,1.07-0.38c0.34,0,0.64,0.09,0.92,0.27c0.28,0.18,0.61,0.37,0.99,0.56c0.38,0.2,0.85,0.38,1.41,0.56
			c0.56,0.18,1.3,0.27,2.22,0.27c0.7,0,1.32-0.09,1.87-0.27c0.55-0.18,0.82-0.58,0.82-1.21c0-0.57-0.22-1.03-0.67-1.37
			c-0.45-0.34-1.01-0.67-1.7-0.97c-0.69-0.3-1.43-0.62-2.22-0.97c-0.8-0.34-1.54-0.8-2.22-1.37c-0.69-0.57-1.25-1.3-1.7-2.18
			c-0.45-0.88-0.67-2.03-0.67-3.44c0-1.53,0.29-2.83,0.86-3.89c0.57-1.06,1.31-1.93,2.22-2.59c0.91-0.66,1.94-1.13,3.08-1.42
			C45.02,33.59,46.16,33.44,47.31,33.44z"/>
		<path class="st1" d="M66.94,59.09c-1.23,0-2.45-0.17-3.67-0.5s-2.31-0.9-3.27-1.71c-0.96-0.81-1.76-1.89-2.37-3.24
			c-0.62-1.35-0.92-3.04-0.92-5.08c0-0.75,0.06-1.65,0.17-2.7c0.11-1.05,0.33-2.13,0.65-3.24c0.32-1.11,0.77-2.21,1.34-3.31
			c0.57-1.09,1.32-2.08,2.24-2.95c0.92-0.87,2.04-1.58,3.36-2.12c1.31-0.54,2.88-0.81,4.7-0.81c1.45,0,2.69,0.18,3.69,0.54
			c1.01,0.36,1.82,0.85,2.43,1.46c0.62,0.62,1.06,1.33,1.34,2.14c0.28,0.81,0.42,1.68,0.42,2.61c0,1.38-0.26,2.55-0.78,3.51
			c-0.52,0.96-1.19,1.76-2.01,2.41c-0.83,0.65-1.74,1.15-2.75,1.51c-1.01,0.36-2,0.64-2.98,0.83c-0.98,0.2-1.88,0.31-2.71,0.36
			c-0.83,0.04-1.46,0.07-1.91,0.07c0,0.57,0.08,1.13,0.23,1.69s0.38,1.04,0.69,1.46c0.31,0.42,0.71,0.77,1.22,1.04
			c0.5,0.27,1.12,0.41,1.85,0.41c0.73,0,1.29-0.13,1.7-0.38c0.4-0.25,0.73-0.54,0.99-0.85c0.25-0.32,0.47-0.6,0.65-0.86
			c0.18-0.25,0.43-0.38,0.73-0.38c0.14,0,0.38,0.04,0.73,0.11c0.35,0.08,0.71,0.23,1.07,0.47c0.36,0.24,0.69,0.57,0.96,0.99
			c0.28,0.42,0.42,0.96,0.42,1.62c0,0.87-0.25,1.62-0.76,2.25s-1.15,1.14-1.95,1.53c-0.8,0.39-1.69,0.67-2.66,0.85
			C68.82,59,67.87,59.09,66.94,59.09z M67.74,39.43c-0.62,0-1.14,0.19-1.57,0.56c-0.43,0.38-0.8,0.85-1.09,1.42
			c-0.29,0.57-0.52,1.2-0.67,1.89c-0.15,0.69-0.27,1.35-0.36,1.98c1.73-0.03,3.14-0.34,4.22-0.94c1.08-0.6,1.62-1.46,1.62-2.57
			c0-0.6-0.17-1.14-0.52-1.62C69.01,39.67,68.47,39.43,67.74,39.43z"/>
		<path class="st1" d="M94.09,33.44c2.63,0,4.61,0.87,5.94,2.61c1.33,1.74,1.99,4.48,1.99,8.23c0,2.34-0.25,4.43-0.75,6.26
			s-1.2,3.38-2.1,4.66c-0.9,1.28-1.94,2.24-3.15,2.9s-2.5,0.99-3.9,0.99c-1.48,0-2.64-0.35-3.48-1.04c-0.84-0.69-1.5-1.67-1.97-2.92
			c-0.08,1.08-0.15,1.91-0.21,2.47c-0.06,0.57-0.1,1.03-0.13,1.37c-0.03,0.34-0.05,0.65-0.06,0.92c-0.01,0.27-0.04,0.63-0.08,1.08
			s-0.09,1.06-0.15,1.84c-0.06,0.78-0.14,1.86-0.25,3.24c-0.03,0.36-0.1,0.6-0.21,0.72c-0.11,0.12-0.35,0.18-0.71,0.18h-1.51
			c-0.87,0-1.57-0.1-2.12-0.29s-0.98-0.47-1.3-0.83c-0.32-0.36-0.55-0.8-0.67-1.33c-0.13-0.52-0.19-1.13-0.19-1.82
			c0-0.3,0.04-1.11,0.13-2.43c0.08-1.32,0.19-2.9,0.31-4.75c0.13-1.84,0.27-3.83,0.42-5.96c0.15-2.13,0.3-4.16,0.44-6.1
			c0.14-1.94,0.26-3.65,0.36-5.15c0.1-1.5,0.17-2.54,0.23-3.1c0.03-0.66,0.1-1.05,0.21-1.17c0.08-0.09,0.31-0.13,0.67-0.13h1.64
			c1.51,0,2.61,0.34,3.29,1.01c0.69,0.67,1.03,1.48,1.03,2.41c0.64-1.38,1.48-2.37,2.5-2.97C91.31,33.74,92.58,33.44,94.09,33.44z
			 M91.03,39.43c-1.43,0-2.48,0.66-3.15,1.98c-0.67,1.32-1.01,3.12-1.01,5.4c0,0.78,0.05,1.55,0.15,2.29
			c0.1,0.75,0.27,1.42,0.52,2.03c0.25,0.6,0.59,1.08,1.03,1.44c0.43,0.36,0.99,0.54,1.66,0.54c1.2,0,2.21-0.63,3.02-1.89
			c0.81-1.26,1.22-3.24,1.22-5.94c0-0.75-0.05-1.48-0.15-2.18c-0.1-0.7-0.27-1.33-0.52-1.87c-0.25-0.54-0.6-0.97-1.05-1.31
			C92.3,39.59,91.73,39.43,91.03,39.43z"/>
		<path class="st1" d="M118.8,44.65c-0.17,0-0.36-0.01-0.57-0.02c-0.21-0.01-0.41-0.04-0.61-0.09c-0.2-0.04-0.36-0.1-0.5-0.18
			c-0.14-0.08-0.21-0.17-0.21-0.29c0-0.39,0.01-0.75,0.04-1.08c0.03-0.33,0.04-0.67,0.04-1.03c0-0.66-0.08-1.2-0.25-1.62
			c-0.17-0.42-0.5-0.63-1.01-0.63c-0.78,0-1.43,0.55-1.95,1.64c-0.52,1.1-0.85,2.74-0.99,4.93c-0.06,0.96-0.13,2.05-0.23,3.26
			c-0.1,1.21-0.19,2.38-0.27,3.51s-0.15,2.12-0.21,2.99c-0.06,0.87-0.08,1.44-0.08,1.71c0,0.3-0.1,0.53-0.29,0.68
			c-0.2,0.15-0.41,0.22-0.63,0.22h-1.51c-0.87,0-1.57-0.1-2.12-0.29c-0.55-0.19-0.98-0.47-1.3-0.83c-0.32-0.36-0.55-0.8-0.67-1.33
			c-0.13-0.52-0.19-1.13-0.19-1.82c0-0.45,0.02-1.09,0.06-1.91s0.12-1.96,0.23-3.42s0.24-3.3,0.4-5.54c0.15-2.23,0.34-5,0.57-8.3
			c0.06-0.87,0.35-1.31,0.88-1.31h1.64c0.78,0,1.44,0.09,1.97,0.27s0.97,0.43,1.3,0.74c0.34,0.31,0.58,0.68,0.73,1.1
			c0.15,0.42,0.26,0.85,0.31,1.3c0.34-0.69,0.73-1.28,1.2-1.78s0.94-0.9,1.45-1.21c0.5-0.32,1.02-0.54,1.55-0.68
			c0.53-0.13,1.02-0.2,1.47-0.2c0.53,0,1.07,0.11,1.62,0.32s1.04,0.52,1.49,0.94c0.45,0.42,0.8,0.96,1.07,1.62
			c0.27,0.66,0.4,1.44,0.4,2.34c0,0.81-0.11,1.58-0.34,2.29c-0.22,0.72-0.55,1.36-0.96,1.91c-0.42,0.56-0.93,0.99-1.53,1.3
			C120.19,44.49,119.53,44.65,118.8,44.65z"/>
		<path class="st1" d="M134.74,59.09c-1.93,0-3.53-0.29-4.8-0.88c-1.27-0.58-2.29-1.39-3.04-2.41c-0.76-1.02-1.29-2.21-1.59-3.58
			c-0.31-1.37-0.46-2.83-0.46-4.39c0-1.8,0.2-3.56,0.61-5.29c0.4-1.72,1.1-3.26,2.08-4.61c0.98-1.35,2.27-2.44,3.88-3.26
			c1.61-0.82,3.61-1.24,6.02-1.24c3.52,0,6.05,0.92,7.57,2.77c1.52,1.85,2.29,4.43,2.29,7.76c0,0.93-0.06,1.96-0.19,3.08
			c-0.13,1.12-0.36,2.24-0.71,3.35c-0.35,1.11-0.83,2.19-1.43,3.24c-0.6,1.05-1.36,1.98-2.29,2.79c-0.92,0.81-2.04,1.46-3.34,1.94
			C138.04,58.85,136.51,59.09,134.74,59.09z M136.72,39.43c-1.06,0-1.91,0.29-2.54,0.88s-1.11,1.29-1.43,2.11
			c-0.32,0.83-0.53,1.7-0.63,2.61c-0.1,0.92-0.15,1.69-0.15,2.32c0,1.98,0.29,3.44,0.88,4.37s1.43,1.39,2.52,1.39
			c0.98,0,1.78-0.33,2.41-0.99c0.63-0.66,1.12-1.45,1.47-2.38c0.35-0.93,0.59-1.9,0.71-2.92c0.13-1.02,0.19-1.88,0.19-2.57
			c0-1.5-0.26-2.68-0.78-3.53C138.86,39.85,137.97,39.43,136.72,39.43z"/>
		<path class="st1" d="M164.36,53.06c0.08-0.99,0.17-2.03,0.27-3.1c0.1-1.08,0.18-2.12,0.25-3.11c0.07-0.99,0.13-1.87,0.19-2.66
			c0.06-0.78,0.08-1.35,0.08-1.71c0-0.78-0.17-1.48-0.52-2.09c-0.35-0.61-1.03-0.92-2.04-0.92c-1.34,0-2.43,0.67-3.25,2.02
			c-0.82,1.35-1.31,3.15-1.45,5.4c-0.06,0.63-0.12,1.51-0.21,2.63s-0.17,2.27-0.25,3.42c-0.08,1.16-0.16,2.19-0.23,3.1
			c-0.07,0.92-0.11,1.48-0.11,1.69c0,0.36-0.06,0.6-0.19,0.72c-0.12,0.12-0.37,0.18-0.73,0.18h-1.51c-0.87,0-1.57-0.1-2.12-0.29
			c-0.55-0.19-0.98-0.47-1.3-0.83c-0.32-0.36-0.55-0.8-0.67-1.33c-0.13-0.52-0.19-1.13-0.19-1.82c0-0.66,0.05-1.58,0.15-2.77
			c0.1-1.18,0.23-2.82,0.4-4.9s0.36-4.75,0.59-7.99c0.22-3.24,0.46-7.26,0.71-12.06c0.03-0.66,0.1-1.05,0.21-1.17
			c0.08-0.09,0.31-0.13,0.67-0.13h1.64c0.84,0,1.54,0.11,2.1,0.31c0.56,0.21,1.01,0.49,1.34,0.85c0.34,0.36,0.57,0.77,0.71,1.24
			c0.14,0.47,0.21,0.95,0.21,1.46c0,0.54-0.05,1.55-0.15,3.02c-0.1,1.47-0.22,3.19-0.36,5.17c0.84-1.5,1.77-2.53,2.79-3.1
			c1.02-0.57,2.31-0.85,3.88-0.85c1.17,0,2.2,0.14,3.06,0.41s1.59,0.73,2.16,1.37c0.57,0.65,1,1.48,1.28,2.52
			c0.28,1.03,0.42,2.32,0.42,3.85c0,0.48-0.04,1.31-0.12,2.48s-0.19,2.5-0.31,4c-0.13,1.5-0.25,3.07-0.38,4.7
			c-0.12,1.63-0.23,3.13-0.31,4.48c-0.03,0.33-0.06,0.58-0.08,0.76s-0.08,0.31-0.15,0.41c-0.07,0.09-0.18,0.15-0.31,0.18
			c-0.14,0.03-0.34,0.04-0.59,0.04h-1.34c-0.9,0-1.62-0.09-2.18-0.27c-0.56-0.18-0.99-0.43-1.3-0.77c-0.31-0.33-0.53-0.74-0.65-1.24
			c-0.13-0.5-0.19-1.06-0.19-1.69c0-0.3,0.01-0.58,0.02-0.86C164.32,53.56,164.34,53.3,164.36,53.06z"/>
		<path class="st1" d="M180.27,58.64c-0.87,0-1.57-0.1-2.12-0.29c-0.55-0.19-0.98-0.47-1.3-0.83s-0.54-0.8-0.67-1.33
			s-0.19-1.13-0.19-1.82c0-0.45,0.02-1.09,0.06-1.91s0.12-1.96,0.23-3.42c0.11-1.46,0.25-3.3,0.4-5.54c0.15-2.23,0.34-5,0.57-8.3
			c0.03-0.66,0.1-1.05,0.21-1.17c0.08-0.09,0.31-0.13,0.67-0.13h1.64c0.87,0,1.57,0.09,2.12,0.27c0.54,0.18,0.98,0.45,1.3,0.81
			s0.55,0.79,0.67,1.3c0.13,0.51,0.19,1.08,0.19,1.71c0,0.45-0.03,1.12-0.08,2.02s-0.13,2.12-0.23,3.67
			c-0.1,1.55-0.23,3.47-0.4,5.76s-0.38,5.06-0.63,8.3c-0.03,0.36-0.1,0.6-0.21,0.72c-0.11,0.12-0.35,0.18-0.71,0.18H180.27z
			 M177.29,28.58c0-1.2,0.41-2.14,1.22-2.83c0.81-0.69,1.9-1.04,3.27-1.04c1.2,0,2.08,0.26,2.62,0.79c0.55,0.53,0.82,1.22,0.82,2.09
			c0,1.11-0.38,2.03-1.15,2.77c-0.77,0.74-1.9,1.1-3.38,1.1C178.42,31.46,177.29,30.5,177.29,28.58z"/>
		<path class="st1" d="M194.99,50.54c-0.08,1.38-0.18,2.69-0.29,3.94c-0.11,1.25-0.2,2.33-0.25,3.26c-0.03,0.36-0.1,0.6-0.21,0.72
			c-0.11,0.12-0.35,0.18-0.71,0.18h-1.51c-0.87,0-1.57-0.1-2.12-0.29c-0.55-0.19-0.98-0.47-1.3-0.83s-0.54-0.8-0.67-1.33
			s-0.19-1.13-0.19-1.82c0-0.45,0.02-1.09,0.06-1.91s0.12-1.96,0.23-3.42c0.11-1.46,0.25-3.3,0.4-5.54c0.15-2.23,0.34-5,0.57-8.3
			c0.03-0.66,0.1-1.05,0.21-1.17c0.08-0.09,0.31-0.13,0.67-0.13h1.64c0.84,0,1.52,0.11,2.06,0.31c0.53,0.21,0.96,0.48,1.3,0.81
			c0.34,0.33,0.57,0.72,0.71,1.17c0.14,0.45,0.22,0.92,0.25,1.4c0.81-1.62,1.73-2.71,2.77-3.29c1.03-0.57,2.25-0.85,3.65-0.85
			c0.76,0,1.48,0.08,2.18,0.23c0.7,0.15,1.33,0.41,1.89,0.77c0.56,0.36,1.03,0.83,1.43,1.42s0.67,1.33,0.84,2.23
			c0.87-1.74,1.82-2.95,2.85-3.62c1.03-0.67,2.33-1.01,3.9-1.01c0.87,0,1.7,0.1,2.5,0.29c0.8,0.2,1.49,0.53,2.08,1.01
			c0.59,0.48,1.06,1.13,1.41,1.96c0.35,0.83,0.52,1.85,0.52,3.08c0,0.93-0.04,2.07-0.13,3.42c-0.08,1.35-0.18,2.81-0.29,4.39
			c-0.11,1.58-0.24,3.2-0.38,4.86s-0.25,3.26-0.33,4.79c-0.03,0.33-0.06,0.58-0.08,0.76c-0.03,0.18-0.08,0.31-0.15,0.41
			c-0.07,0.09-0.17,0.15-0.31,0.18c-0.14,0.03-0.33,0.04-0.59,0.04h-1.34c-0.9,0-1.62-0.09-2.18-0.27c-0.56-0.18-0.99-0.43-1.3-0.77
			c-0.31-0.33-0.52-0.74-0.65-1.24s-0.19-1.06-0.19-1.69c0-0.39,0.02-0.95,0.06-1.67s0.1-1.5,0.17-2.34
			c0.07-0.84,0.14-1.71,0.21-2.61c0.07-0.9,0.14-1.73,0.21-2.5c0.07-0.77,0.13-1.43,0.17-2c0.04-0.57,0.06-0.94,0.06-1.12
			c0-0.78-0.15-1.47-0.44-2.07c-0.29-0.6-0.86-0.9-1.7-0.9c-0.73,0-1.36,0.26-1.89,0.77c-0.53,0.51-0.98,1.21-1.34,2.11
			c-0.36,0.9-0.66,1.96-0.88,3.2c-0.22,1.23-0.38,2.56-0.46,4c-0.06,0.93-0.13,2-0.21,3.2s-0.18,2.7-0.29,4.5
			c-0.03,0.33-0.06,0.58-0.08,0.76c-0.03,0.18-0.08,0.31-0.15,0.41c-0.07,0.09-0.17,0.15-0.31,0.18c-0.14,0.03-0.34,0.04-0.59,0.04
			h-1.34c-0.9,0-1.62-0.09-2.18-0.27c-0.56-0.18-0.99-0.43-1.3-0.77c-0.31-0.33-0.52-0.74-0.65-1.24s-0.19-1.06-0.19-1.69
			c0-0.6,0.05-1.48,0.15-2.63c0.1-1.15,0.2-2.35,0.29-3.6c0.1-1.25,0.2-2.43,0.29-3.55c0.1-1.12,0.15-1.94,0.15-2.45
			c0-0.78-0.15-1.47-0.44-2.07c-0.29-0.6-0.86-0.9-1.7-0.9c-0.75,0-1.4,0.3-1.93,0.9c-0.53,0.6-0.97,1.4-1.32,2.41
			s-0.63,2.18-0.84,3.53S195.08,49.07,194.99,50.54z"/>
		<path class="st1" d="M224.32,53.11c0-2.7,1.13-4.81,3.4-6.34c2.26-1.53,5.61-2.35,10.03-2.48c0.03-0.33,0.05-0.61,0.06-0.83
			c0.01-0.22,0.02-0.5,0.02-0.83c0-0.96-0.17-1.73-0.5-2.3c-0.34-0.57-1.04-0.85-2.1-0.85c-0.59,0-1.06,0.09-1.43,0.27
			c-0.36,0.18-0.66,0.43-0.88,0.74c-0.22,0.32-0.41,0.7-0.55,1.15c-0.14,0.45-0.27,0.95-0.38,1.48c-0.06,0.27-0.18,0.44-0.38,0.52
			c-0.2,0.08-0.5,0.11-0.92,0.11c-2.85,0-4.28-1.15-4.28-3.47c0-0.93,0.2-1.81,0.61-2.66c0.41-0.84,1.01-1.57,1.8-2.18
			c0.8-0.61,1.8-1.1,3-1.46c1.2-0.36,2.6-0.54,4.2-0.54c3.1,0,5.36,0.69,6.75,2.07c1.4,1.38,2.1,3.33,2.1,5.85
			c0,0.33-0.04,0.92-0.1,1.78c-0.07,0.86-0.15,1.76-0.25,2.7c-0.1,0.95-0.18,1.84-0.25,2.68c-0.07,0.84-0.1,1.42-0.1,1.75
			c0,0.75,0.13,1.28,0.38,1.6c0.25,0.32,0.54,0.53,0.86,0.65c0.32,0.12,0.61,0.21,0.86,0.27s0.38,0.21,0.38,0.45
			c0,0.66-0.08,1.34-0.25,2.03c-0.17,0.69-0.44,1.32-0.82,1.89c-0.38,0.57-0.9,1.04-1.55,1.4c-0.66,0.36-1.46,0.54-2.41,0.54
			c-1.34,0-2.35-0.35-3.02-1.04c-0.67-0.69-1.12-1.65-1.34-2.88c-0.67,1.05-1.55,1.96-2.62,2.75c-1.08,0.78-2.48,1.17-4.22,1.17
			c-0.84,0-1.63-0.11-2.37-0.32c-0.74-0.21-1.38-0.55-1.93-1.04c-0.54-0.48-0.98-1.1-1.3-1.87
			C224.48,55.11,224.32,54.19,224.32,53.11z M237.37,47.98c-0.73,0-1.44,0.06-2.14,0.18c-0.7,0.12-1.32,0.31-1.87,0.56
			c-0.55,0.26-0.99,0.59-1.32,1.01c-0.34,0.42-0.5,0.93-0.5,1.53c0,0.69,0.2,1.17,0.61,1.44c0.41,0.27,0.85,0.41,1.32,0.41
			c0.45,0,0.9-0.1,1.34-0.31s0.85-0.53,1.2-0.97c0.35-0.43,0.65-0.97,0.9-1.6S237.31,48.85,237.37,47.98z"/>
		<path class="st1" d="M258.22,39.97c-0.08,1.14-0.17,2.26-0.27,3.38c-0.1,1.11-0.19,2.16-0.27,3.15c-0.08,0.99-0.15,1.88-0.19,2.66
			c-0.04,0.78-0.06,1.38-0.06,1.8c0,0.78,0.08,1.3,0.25,1.55s0.45,0.38,0.84,0.38c0.31,0,0.57-0.06,0.8-0.18
			c0.22-0.12,0.43-0.25,0.63-0.4c0.2-0.15,0.37-0.29,0.52-0.41c0.15-0.12,0.33-0.18,0.52-0.18c0.2,0,0.38,0.12,0.54,0.36
			c0.17,0.24,0.25,0.8,0.25,1.67c0,1.65-0.42,2.96-1.26,3.92c-0.84,0.96-2.28,1.44-4.32,1.44c-2.01,0-3.5-0.5-4.47-1.51
			c-0.96-1-1.45-2.54-1.45-4.61c0-0.45,0.02-0.98,0.06-1.6c0.04-0.61,0.1-1.42,0.19-2.41s0.19-2.21,0.31-3.65
			c0.13-1.44,0.26-3.22,0.4-5.35h-2.22c-0.22,0-0.36-0.05-0.4-0.16c-0.04-0.1-0.06-0.26-0.06-0.47l0.13-2.29
			c0.03-0.39,0.08-0.77,0.15-1.15c0.07-0.37,0.21-0.71,0.42-1.01s0.51-0.54,0.9-0.72c0.39-0.18,0.91-0.27,1.55-0.27
			c0.2-0.54,0.42-1.18,0.67-1.94c0.25-0.75,0.5-1.48,0.75-2.18c0.25-0.7,0.5-1.3,0.73-1.78c0.24-0.48,0.45-0.72,0.65-0.72h1.22
			c1.17,0,1.99,0.39,2.43,1.17c0.45,0.78,0.67,1.71,0.67,2.79c0,0.6-0.04,1.48-0.13,2.65h4.41c0.45,0,0.67,0.21,0.67,0.63
			l-0.17,2.43c-0.06,0.9-0.29,1.63-0.69,2.18c-0.41,0.56-1.24,0.83-2.5,0.83H258.22z"/>
		<path class="st1" d="M275.33,59.09c-1.23,0-2.46-0.17-3.67-0.5c-1.22-0.33-2.31-0.9-3.27-1.71c-0.96-0.81-1.75-1.89-2.37-3.24
			c-0.62-1.35-0.92-3.04-0.92-5.08c0-0.75,0.06-1.65,0.17-2.7c0.11-1.05,0.33-2.13,0.65-3.24c0.32-1.11,0.77-2.21,1.34-3.31
			c0.57-1.09,1.32-2.08,2.25-2.95c0.92-0.87,2.04-1.58,3.36-2.12c1.31-0.54,2.88-0.81,4.7-0.81c1.45,0,2.68,0.18,3.69,0.54
			c1.01,0.36,1.82,0.85,2.43,1.46c0.62,0.62,1.06,1.33,1.34,2.14c0.28,0.81,0.42,1.68,0.42,2.61c0,1.38-0.26,2.55-0.78,3.51
			c-0.52,0.96-1.19,1.76-2.01,2.41c-0.83,0.65-1.74,1.15-2.75,1.51c-1.01,0.36-2,0.64-2.98,0.83s-1.88,0.31-2.71,0.36
			c-0.83,0.04-1.46,0.07-1.91,0.07c0,0.57,0.08,1.13,0.23,1.69c0.15,0.55,0.38,1.04,0.69,1.46c0.31,0.42,0.71,0.77,1.22,1.04
			c0.5,0.27,1.12,0.41,1.85,0.41c0.73,0,1.29-0.13,1.7-0.38c0.41-0.25,0.73-0.54,0.99-0.85c0.25-0.32,0.47-0.6,0.65-0.86
			s0.43-0.38,0.73-0.38c0.14,0,0.38,0.04,0.73,0.11s0.71,0.23,1.07,0.47c0.36,0.24,0.68,0.57,0.96,0.99
			c0.28,0.42,0.42,0.96,0.42,1.62c0,0.87-0.25,1.62-0.75,2.25s-1.15,1.14-1.95,1.53c-0.8,0.39-1.69,0.67-2.66,0.85
			C277.21,59,276.26,59.09,275.33,59.09z M276.13,39.43c-0.62,0-1.14,0.19-1.57,0.56c-0.43,0.38-0.8,0.85-1.09,1.42
			c-0.29,0.57-0.52,1.2-0.67,1.89c-0.15,0.69-0.27,1.35-0.36,1.98c1.73-0.03,3.14-0.34,4.22-0.94c1.08-0.6,1.62-1.46,1.62-2.57
			c0-0.6-0.17-1.14-0.52-1.62C277.4,39.67,276.86,39.43,276.13,39.43z"/>
		<path class="st1" d="M286.71,53.11c0-2.7,1.13-4.81,3.4-6.34c2.26-1.53,5.61-2.35,10.03-2.48c0.03-0.33,0.05-0.61,0.06-0.83
			c0.01-0.22,0.02-0.5,0.02-0.83c0-0.96-0.17-1.73-0.5-2.3c-0.34-0.57-1.04-0.85-2.1-0.85c-0.59,0-1.06,0.09-1.43,0.27
			c-0.36,0.18-0.66,0.43-0.88,0.74c-0.22,0.32-0.41,0.7-0.55,1.15c-0.14,0.45-0.27,0.95-0.38,1.48c-0.06,0.27-0.18,0.44-0.38,0.52
			c-0.2,0.08-0.5,0.11-0.92,0.11c-2.85,0-4.28-1.15-4.28-3.47c0-0.93,0.2-1.81,0.61-2.66c0.41-0.84,1.01-1.57,1.8-2.18
			c0.8-0.61,1.8-1.1,3-1.46c1.2-0.36,2.6-0.54,4.2-0.54c3.1,0,5.36,0.69,6.75,2.07c1.4,1.38,2.1,3.33,2.1,5.85
			c0,0.33-0.04,0.92-0.1,1.78c-0.07,0.86-0.15,1.76-0.25,2.7c-0.1,0.95-0.18,1.84-0.25,2.68c-0.07,0.84-0.1,1.42-0.1,1.75
			c0,0.75,0.13,1.28,0.38,1.6c0.25,0.32,0.54,0.53,0.86,0.65c0.32,0.12,0.61,0.21,0.86,0.27s0.38,0.21,0.38,0.45
			c0,0.66-0.08,1.34-0.25,2.03c-0.17,0.69-0.44,1.32-0.82,1.89c-0.38,0.57-0.9,1.04-1.55,1.4c-0.66,0.36-1.46,0.54-2.41,0.54
			c-1.34,0-2.35-0.35-3.02-1.04c-0.67-0.69-1.12-1.65-1.34-2.88c-0.67,1.05-1.55,1.96-2.62,2.75c-1.08,0.78-2.48,1.17-4.22,1.17
			c-0.84,0-1.63-0.11-2.37-0.32c-0.74-0.21-1.38-0.55-1.93-1.04c-0.54-0.48-0.98-1.1-1.3-1.87
			C286.87,55.11,286.71,54.19,286.71,53.11z M299.75,47.98c-0.73,0-1.44,0.06-2.14,0.18c-0.7,0.12-1.32,0.31-1.87,0.56
			c-0.55,0.26-0.99,0.59-1.32,1.01c-0.34,0.42-0.5,0.93-0.5,1.53c0,0.69,0.2,1.17,0.61,1.44c0.41,0.27,0.85,0.41,1.32,0.41
			c0.45,0,0.9-0.1,1.34-0.31s0.85-0.53,1.2-0.97c0.35-0.43,0.65-0.97,0.9-1.6S299.7,48.85,299.75,47.98z"/>
	</g>
</g>
</svg>
