<svg width="235" height="45" viewBox="0 0 142 27" fill="none" xmlns="http://www.w3.org/2000/svg">
<g clip-path="url(#clip0)">
<g opacity="0.9">
<path opacity="0.9" d="M3.2541 18.2716C2.28061 18.2716 1.3158 17.846 0.676196 17.0349C-0.420878 15.6456 -0.156366 13.6507 1.26593 12.5791L14.7369 1.94335C16.1592 0.871769 18.2016 1.13014 19.2986 2.51938C20.3957 3.90863 20.1312 5.90355 18.7089 6.97514L5.23794 17.6109C4.64604 18.0556 3.94791 18.2716 3.2541 18.2716Z" fill="#176BFA"/>
</g>
<g opacity="0.9">
<path opacity="0.9" d="M14.5544 26.7771C13.8606 26.7771 13.1625 26.5611 12.5706 26.1164L1.26593 17.6051C-0.156366 16.5335 -0.420878 14.5386 0.676197 13.1493C1.77327 11.7601 3.81348 11.5017 5.23794 12.5733L16.5426 21.0824C17.9649 22.154 18.2294 24.149 17.1323 25.5382C16.4927 26.3514 15.5279 26.7771 14.5544 26.7771Z" fill="#FFBA00"/>
</g>
</g>
<path d="M32.048 16.336C32.1013 17.0933 32.4053 17.7013 32.96 18.16C33.5147 18.608 34.2187 18.832 35.072 18.832C35.84 18.832 36.4587 18.6667 36.928 18.336C37.408 17.9947 37.648 17.5253 37.648 16.928C37.648 16.4907 37.5147 16.144 37.248 15.888C36.992 15.632 36.656 15.4453 36.24 15.328C35.8347 15.2 35.28 15.0773 34.576 14.96C33.456 14.768 32.5653 14.4533 31.904 14.016C31.2427 13.5787 30.912 12.8693 30.912 11.888C30.912 11.2587 31.072 10.704 31.392 10.224C31.712 9.73333 32.16 9.35467 32.736 9.088C33.3227 8.82133 33.9893 8.688 34.736 8.688C35.5253 8.688 36.224 8.832 36.832 9.12C37.44 9.408 37.92 9.81333 38.272 10.336C38.624 10.848 38.8213 11.44 38.864 12.112H37.488C37.4027 11.4613 37.1093 10.9387 36.608 10.544C36.1067 10.1493 35.4827 9.952 34.736 9.952C33.9893 9.952 33.3973 10.1173 32.96 10.448C32.5227 10.768 32.304 11.2213 32.304 11.808C32.304 12.2347 32.432 12.5707 32.688 12.816C32.944 13.0507 33.2747 13.232 33.68 13.36C34.0853 13.4773 34.64 13.5947 35.344 13.712C36.464 13.904 37.36 14.224 38.032 14.672C38.704 15.1093 39.04 15.8187 39.04 16.8C39.04 17.44 38.8693 18.0107 38.528 18.512C38.1973 19.0133 37.728 19.4027 37.12 19.68C36.5227 19.9573 35.8347 20.096 35.056 20.096C34.1813 20.096 33.4187 19.9413 32.768 19.632C32.1173 19.312 31.6107 18.8693 31.248 18.304C30.896 17.728 30.704 17.072 30.672 16.336H32.048ZM41.2708 8.688C41.5161 8.688 41.7188 8.768 41.8788 8.928C42.0388 9.088 42.1188 9.29067 42.1188 9.536C42.1188 9.78133 42.0388 9.984 41.8788 10.144C41.7188 10.304 41.5161 10.384 41.2708 10.384C41.0254 10.384 40.8228 10.304 40.6628 10.144C40.5028 9.984 40.4228 9.78133 40.4228 9.536C40.4228 9.29067 40.5028 9.088 40.6628 8.928C40.8228 8.768 41.0254 8.688 41.2708 8.688ZM40.6148 11.84H41.9268V20H40.6148V11.84ZM44.2681 13.04H42.7961V11.84H44.2681V9.552H45.5801V11.84H47.6441V13.04H45.5801V17.856C45.5801 18.1973 45.6441 18.4427 45.7721 18.592C45.9108 18.7307 46.1455 18.8 46.4761 18.8H47.9001V20H46.3961C45.6281 20 45.0788 19.8293 44.7481 19.488C44.4281 19.1467 44.2681 18.608 44.2681 17.872V13.04ZM48.3424 15.92C48.3424 15.088 48.5024 14.3573 48.8224 13.728C49.153 13.0987 49.6117 12.6133 50.1984 12.272C50.785 11.92 51.457 11.744 52.2144 11.744C52.961 11.744 53.6224 11.8987 54.1984 12.208C54.7744 12.5173 55.2277 12.9653 55.5584 13.552C55.889 14.1387 56.065 14.8267 56.0864 15.616C56.0864 15.7333 56.0757 15.92 56.0544 16.176H49.7184V16.288C49.7397 17.088 49.985 17.728 50.4544 18.208C50.9237 18.688 51.537 18.928 52.2944 18.928C52.881 18.928 53.377 18.784 53.7824 18.496C54.1984 18.1973 54.4757 17.7867 54.6144 17.264H55.9424C55.7824 18.096 55.3824 18.7787 54.7424 19.312C54.1024 19.8347 53.3184 20.096 52.3904 20.096C51.5797 20.096 50.8704 19.9253 50.2624 19.584C49.6544 19.232 49.1797 18.7413 48.8384 18.112C48.5077 17.472 48.3424 16.7413 48.3424 15.92ZM54.7264 15.088C54.6624 14.3947 54.401 13.856 53.9424 13.472C53.4944 13.088 52.9237 12.896 52.2304 12.896C51.6117 12.896 51.0677 13.0987 50.5984 13.504C50.129 13.9093 49.8624 14.4373 49.7984 15.088H54.7264ZM56.8635 20L61.1355 8.8H62.7835L67.0395 20H65.5515L64.3675 16.976H59.4875L58.3035 20H56.8635ZM59.9035 15.712H63.9515L61.9195 10.32L59.9035 15.712ZM74.8731 11.84V20H73.7371L73.5611 18.912C72.9425 19.7013 72.0731 20.096 70.9531 20.096C69.9825 20.096 69.2038 19.7973 68.6171 19.2C68.0305 18.6027 67.7371 17.664 67.7371 16.384V11.84H69.0491V16.304C69.0491 17.1467 69.2305 17.792 69.5931 18.24C69.9665 18.6773 70.4945 18.896 71.1771 18.896C71.9238 18.896 72.5051 18.6293 72.9211 18.096C73.3478 17.5627 73.5611 16.8373 73.5611 15.92V11.84H74.8731ZM84.4056 8.8V20H83.2696L83.0936 18.688C82.411 19.6267 81.4776 20.096 80.2936 20.096C79.5363 20.096 78.859 19.9307 78.2616 19.6C77.675 19.2693 77.211 18.7893 76.8696 18.16C76.539 17.5307 76.3736 16.784 76.3736 15.92C76.3736 15.0987 76.539 14.3733 76.8696 13.744C77.211 13.1147 77.6803 12.624 78.2776 12.272C78.875 11.92 79.547 11.744 80.2936 11.744C80.955 11.744 81.5203 11.8667 81.9896 12.112C82.459 12.3467 82.827 12.672 83.0936 13.088V8.8H84.4056ZM80.4216 18.928C80.9443 18.928 81.4083 18.8053 81.8136 18.56C82.2296 18.304 82.5496 17.952 82.7736 17.504C82.9976 17.0453 83.1096 16.528 83.1096 15.952C83.1096 15.3653 82.9976 14.8427 82.7736 14.384C82.5496 13.9147 82.2296 13.552 81.8136 13.296C81.4083 13.04 80.9443 12.912 80.4216 12.912C79.611 12.912 78.955 13.1947 78.4536 13.76C77.963 14.3147 77.7176 15.0347 77.7176 15.92C77.7176 16.8053 77.963 17.5307 78.4536 18.096C78.955 18.6507 79.611 18.928 80.4216 18.928ZM86.8489 8.688C87.0942 8.688 87.2969 8.768 87.4569 8.928C87.6169 9.088 87.6969 9.29067 87.6969 9.536C87.6969 9.78133 87.6169 9.984 87.4569 10.144C87.2969 10.304 87.0942 10.384 86.8489 10.384C86.6035 10.384 86.4009 10.304 86.2409 10.144C86.0809 9.984 86.0009 9.78133 86.0009 9.536C86.0009 9.29067 86.0809 9.088 86.2409 8.928C86.4009 8.768 86.6035 8.688 86.8489 8.688ZM86.1929 11.84H87.5049V20H86.1929V11.84ZM89.8463 13.04H88.3742V11.84H89.8463V9.552H91.1583V11.84H93.2223V13.04H91.1583V17.856C91.1583 18.1973 91.2223 18.4427 91.3503 18.592C91.4889 18.7307 91.7236 18.8 92.0543 18.8H93.4783V20H91.9743C91.2063 20 90.6569 19.8293 90.3263 19.488C90.0063 19.1467 89.8463 18.608 89.8463 17.872V13.04ZM97.9685 20.096C97.1792 20.096 96.4752 19.92 95.8565 19.568C95.2485 19.216 94.7738 18.7253 94.4325 18.096C94.0912 17.4667 93.9205 16.7413 93.9205 15.92C93.9205 15.0987 94.0912 14.3733 94.4325 13.744C94.7738 13.1147 95.2485 12.624 95.8565 12.272C96.4752 11.92 97.1792 11.744 97.9685 11.744C98.7578 11.744 99.4565 11.92 100.065 12.272C100.683 12.624 101.163 13.1147 101.505 13.744C101.846 14.3733 102.017 15.0987 102.017 15.92C102.017 16.7413 101.846 17.4667 101.505 18.096C101.163 18.7253 100.683 19.216 100.065 19.568C99.4565 19.92 98.7578 20.096 97.9685 20.096ZM97.9685 18.928C98.5018 18.928 98.9712 18.8 99.3765 18.544C99.7925 18.288 100.113 17.9307 100.337 17.472C100.561 17.0133 100.673 16.496 100.673 15.92C100.673 15.344 100.561 14.8267 100.337 14.368C100.113 13.9093 99.7925 13.552 99.3765 13.296C98.9712 13.04 98.5018 12.912 97.9685 12.912C97.4352 12.912 96.9605 13.04 96.5445 13.296C96.1392 13.552 95.8245 13.9093 95.6005 14.368C95.3765 14.8267 95.2645 15.344 95.2645 15.92C95.2645 16.496 95.3765 17.0133 95.6005 17.472C95.8245 17.9307 96.1392 18.288 96.5445 18.544C96.9605 18.8 97.4352 18.928 97.9685 18.928ZM107.665 11.84V13.12H107.009C106.23 13.12 105.67 13.3813 105.329 13.904C104.998 14.4267 104.833 15.072 104.833 15.84V20H103.521V11.84H104.657L104.833 13.072C105.068 12.6987 105.372 12.4 105.745 12.176C106.118 11.952 106.636 11.84 107.297 11.84H107.665ZM107.83 19.2C107.83 18.9333 107.915 18.72 108.086 18.56C108.256 18.3893 108.475 18.304 108.742 18.304C109.008 18.304 109.227 18.3893 109.398 18.56C109.568 18.72 109.654 18.9333 109.654 19.2C109.654 19.4667 109.568 19.6853 109.398 19.856C109.227 20.016 109.008 20.096 108.742 20.096C108.475 20.096 108.256 20.016 108.086 19.856C107.915 19.6853 107.83 19.4667 107.83 19.2ZM118.035 17.184C117.865 18.0907 117.465 18.8053 116.835 19.328C116.206 19.84 115.406 20.096 114.435 20.096C113.646 20.096 112.953 19.92 112.355 19.568C111.758 19.216 111.294 18.7253 110.963 18.096C110.633 17.456 110.467 16.7253 110.467 15.904C110.467 15.0827 110.633 14.3573 110.963 13.728C111.305 13.0987 111.779 12.6133 112.387 12.272C112.995 11.92 113.694 11.744 114.483 11.744C115.443 11.744 116.233 12 116.851 12.512C117.481 13.024 117.875 13.728 118.035 14.624H116.707C116.579 14.1013 116.313 13.6853 115.907 13.376C115.502 13.0667 115.011 12.912 114.435 12.912C113.657 12.912 113.022 13.1893 112.531 13.744C112.051 14.2987 111.811 15.0187 111.811 15.904C111.811 16.8 112.051 17.5307 112.531 18.096C113.022 18.6507 113.657 18.928 114.435 18.928C115.033 18.928 115.534 18.7733 115.939 18.464C116.345 18.1547 116.606 17.728 116.723 17.184H118.035ZM123.14 20.096C122.351 20.096 121.647 19.92 121.028 19.568C120.42 19.216 119.946 18.7253 119.604 18.096C119.263 17.4667 119.092 16.7413 119.092 15.92C119.092 15.0987 119.263 14.3733 119.604 13.744C119.946 13.1147 120.42 12.624 121.028 12.272C121.647 11.92 122.351 11.744 123.14 11.744C123.93 11.744 124.628 11.92 125.236 12.272C125.855 12.624 126.335 13.1147 126.676 13.744C127.018 14.3733 127.188 15.0987 127.188 15.92C127.188 16.7413 127.018 17.4667 126.676 18.096C126.335 18.7253 125.855 19.216 125.236 19.568C124.628 19.92 123.93 20.096 123.14 20.096ZM123.14 18.928C123.674 18.928 124.143 18.8 124.548 18.544C124.964 18.288 125.284 17.9307 125.508 17.472C125.732 17.0133 125.844 16.496 125.844 15.92C125.844 15.344 125.732 14.8267 125.508 14.368C125.284 13.9093 124.964 13.552 124.548 13.296C124.143 13.04 123.674 12.912 123.14 12.912C122.607 12.912 122.132 13.04 121.716 13.296C121.311 13.552 120.996 13.9093 120.772 14.368C120.548 14.8267 120.436 15.344 120.436 15.92C120.436 16.496 120.548 17.0133 120.772 17.472C120.996 17.9307 121.311 18.288 121.716 18.544C122.132 18.8 122.607 18.928 123.14 18.928ZM137.797 11.744C138.714 11.744 139.456 12.032 140.021 12.608C140.597 13.184 140.885 14.08 140.885 15.296V20H139.573V15.376C139.573 14.5867 139.402 13.984 139.061 13.568C138.73 13.152 138.256 12.944 137.637 12.944C136.954 12.944 136.416 13.184 136.021 13.664C135.637 14.144 135.445 14.8 135.445 15.632V20H134.133V15.376C134.133 14.5867 133.962 13.984 133.621 13.568C133.28 13.152 132.794 12.944 132.165 12.944C131.504 12.944 130.976 13.2 130.581 13.712C130.197 14.2133 130.005 14.8747 130.005 15.696V20H128.693V11.84H129.829L130.005 12.96C130.592 12.1493 131.386 11.744 132.389 11.744C132.976 11.744 133.493 11.8773 133.941 12.144C134.4 12.4 134.741 12.784 134.965 13.296C135.552 12.2613 136.496 11.744 137.797 11.744Z" fill="black"/>
<defs>
<clipPath id="clip0">
<rect width="21.2368" height="26.7769" fill="white"/>
</clipPath>
</defs>
</svg>

